HIERARCHY
ROOT Hips
{
 OFFSET 0.000000 0.000000 0.000000
 CHANNELS 6 Xposition Yposition Zposition Yrotation Xrotation Zrotation
 JOINT Chest
 {
  OFFSET 0.000000 9.585900 0.002600
  CHANNELS 3 Yrotation Xrotation Zrotation
  JOINT Chest2
  {
   OFFSET 0.000000 9.601200 -0.005300
   CHANNELS 3 Yrotation Xrotation Zrotation
   JOINT Chest3
   {
    OFFSET 0.000000 9.561800 0.000000
    CHANNELS 3 Yrotation Xrotation Zrotation
    JOINT Chest4
    {
     OFFSET 0.000000 9.552100 0.000000
     CHANNELS 3 Yrotation Xrotation Zrotation
     JOINT Neck
     {
      OFFSET 0.000000 14.453000 0.000000
      CHANNELS 3 Yrotation Xrotation Zrotation
      JOINT Head
      {
       OFFSET 0.000000 8.936500 -0.011300
       CHANNELS 3 Yrotation Xrotation Zrotation
       End Site
       {
        OFFSET 0.000000 17.073600 -0.006000
       }
      }
     }
     JOINT RightCollar
     {
      OFFSET -2.921100 9.558500 0.000000
      CHANNELS 3 Yrotation Xrotation Zrotation
      JOINT RightShoulder
      {
       OFFSET -13.519700 0.000000 0.000000
       CHANNELS 3 Yrotation Xrotation Zrotation
       JOINT RightElbow
       {
        OFFSET 0.000000 -29.696600 0.000000
        CHANNELS 3 Yrotation Xrotation Zrotation
        JOINT RightWrist
        {
         OFFSET 0.000000 -24.004700 0.000000
         CHANNELS 3 Yrotation Xrotation Zrotation
         End Site
         {
          OFFSET 0.000000 -17.728500 0.000000
         }
        }
       }
      }
     }
     JOINT LeftCollar
     {
      OFFSET 2.921100 9.558500 0.000000
      CHANNELS 3 Yrotation Xrotation Zrotation
      JOINT LeftShoulder
      {
       OFFSET 13.519700 0.000000 0.000000
       CHANNELS 3 Yrotation Xrotation Zrotation
       JOINT LeftElbow
       {
        OFFSET 0.000000 -29.696600 0.000000
        CHANNELS 3 Yrotation Xrotation Zrotation
        JOINT LeftWrist
        {
         OFFSET 0.000000 -24.004700 0.000000
         CHANNELS 3 Yrotation Xrotation Zrotation
         End Site
         {
          OFFSET 0.000000 -17.728500 0.000000
         }
        }
       }
      }
     }
    }
   }
  }
 }
 JOINT RightHip
 {
  OFFSET -7.771700 -0.012900 -0.001300
  CHANNELS 3 Yrotation Xrotation Zrotation
  JOINT RightKnee
  {
   OFFSET 0.000000 -40.869800 0.001200
   CHANNELS 3 Yrotation Xrotation Zrotation
   JOINT RightAnkle
   {
    OFFSET 0.000000 -39.717900 0.002100
    CHANNELS 3 Yrotation Xrotation Zrotation
    JOINT RightToe
    {
     OFFSET 0.000000 -4.965400 11.033500
     CHANNELS 3 Yrotation Xrotation Zrotation
     End Site
     {
      OFFSET 0.000000 -1.423100 5.872300
     }
    }
   }
  }
 }
 JOINT LeftHip
 {
  OFFSET 7.771700 -0.012900 -0.001300
  CHANNELS 3 Yrotation Xrotation Zrotation
  JOINT LeftKnee
  {
   OFFSET 0.000000 -40.869800 0.001200
   CHANNELS 3 Yrotation Xrotation Zrotation
   JOINT LeftAnkle
   {
    OFFSET 0.000000 -39.717900 0.002100
    CHANNELS 3 Yrotation Xrotation Zrotation
    JOINT LeftToe
    {
     OFFSET 0.000000 -4.965400 11.033500
     CHANNELS 3 Yrotation Xrotation Zrotation
     End Site
     {
      OFFSET 0.000000 -1.423100 5.872300
     }
    }
   }
  }
 }
}
MOTION
Frames: 14
Frame Time: 0.008333
0.000000 85.388000 0.000000 0.000000 -5.767877 0.000000 0.000000 11.653817 0.000000 0.000000 -5.885947 0.000000 0.000000 -0.000000 0.000000 0.000000 -0.000000 0.000000 0.000000 12.528835 0.000000 0.000000 0.711642 0.000000 0.000000 -0.000000 0.000000 0.000000 0.000000 -90.000000 0.000000 -2.309062 0.000000 0.000000 2.309062 0.000000 0.000000 -0.000000 0.000000 0.000000 -0.000000 90.000000 0.000000 -2.309062 0.000000 0.000000 2.309062 0.000000 0.000000 8.520406 0.000000 0.000000 1.905762 0.000000 -0.000000 -4.658285 0.000000 0.000000 -0.000000 0.000000 0.000000 8.520406 0.000000 0.000000 1.905762 0.000000 -0.000000 -4.658285 0.000000 0.000000 -0.000000 0.000000
-51.626615 52.935626 -14.058675 -178.223335 -17.745790 -2.331069 0.719333 15.704325 -0.106103 0.063905 1.496336 -0.010187 0.107358 2.511509 -0.017636 0.637491 13.953487 -0.064102 -0.440576 17.768743 1.920515 -0.853925 -6.995991 2.061222 0.676686 -1.398606 2.737525 -0.220723 -7.226383 -5.263282 -79.540940 -72.057252 109.982572 -5.573692 0.405630 -5.826100 -5.296464 -1.328115 0.392034 3.028030 -7.230467 11.208526 65.453093 -54.914720 -107.101352 2.143832 9.196721 0.212136 0.692081 -60.779201 11.891536 166.906385 86.805803 164.758725 -10.917672 -22.790677 12.698500 0.020770 -0.014127 -0.019722 4.526509 -59.386976 -2.852067 121.232823 78.009129 119.583201 -6.276413 -19.795004 -0.893941 0.008112 0.069914 0.011275
-51.628204 52.938584 -14.059046 -178.221626 -17.742595 -2.321339 0.687260 15.672638 -0.106271 0.083945 1.516102 -0.024002 0.094524 2.495971 -0.011070 0.615990 13.929581 -0.060207 -0.305568 17.837184 1.759413 -0.721654 -6.943663 1.923259 0.701357 -1.355530 2.737078 -0.137674 -7.299984 -5.328346 -79.544446 -72.069733 110.042803 -5.609121 0.231445 -5.892996 -5.297156 -1.263774 0.371379 3.044169 -7.223062 11.229377 65.413751 -54.898979 -107.081323 2.136673 9.195855 0.210704 0.734720 -60.783003 11.882879 167.401971 86.817296 165.297909 -11.277849 -22.775941 12.769568 0.008352 0.013350 -0.004265 4.539607 -59.381717 -2.868557 121.210503 78.014838 119.558239 -6.279615 -19.798882 -0.893716 0.011619 0.072330 0.011626
-51.631508 52.941848 -14.059559 -178.226038 -17.740843 -2.300259 0.667563 15.651699 -0.120793 0.084367 1.518569 -0.024590 0.088534 2.483769 -0.009105 0.597467 13.915057 -0.057774 -0.156883 17.896472 1.606355 -0.530030 -6.883305 1.727649 0.723452 -1.324571 2.740432 -0.043098 -7.372242 -5.397448 -79.545659 -72.097513 110.095154 -5.637268 0.062895 -5.947110 -5.303795 -1.208910 0.362792 3.063810 -7.198791 11.242810 65.226197 -54.852442 -106.951494 2.128510 9.158977 0.216670 0.794910 -60.791616 11.928971 168.942752 86.848669 166.943204 -12.099622 -22.724827 12.897398 -0.026331 0.060665 0.026565 4.572957 -59.374930 -2.904048 121.184032 78.019093 119.533358 -6.289163 -19.798789 -0.897169 0.016453 0.069996 0.012047
-51.632972 52.945412 -14.060540 -178.222692 -17.742216 -2.293781 0.652536 15.642229 -0.125271 0.063233 1.492095 -0.012802 0.092212 2.487543 -0.010725 0.587194 13.911981 -0.061110 0.018431 17.949277 1.444844 -0.297583 -6.816049 1.502501 0.743393 -1.300999 2.741886 0.052545 -7.444579 -5.459626 -79.559782 -72.137043 110.157940 -5.659759 -0.098026 -5.988009 -5.321482 -1.171117 0.370431 3.082297 -7.151796 11.247314 65.258498 -54.830469 -106.980667 2.173920 9.207232 0.221978 0.825999 -60.787880 11.922311 169.302025 86.859728 167.328672 -12.297217 -22.723751 12.938798 -0.032109 0.065803 0.022523 4.576412 -59.367768 -2.913278 121.167356 78.022553 119.513837 -6.294037 -19.798102 -0.896106 0.016824 0.068835 0.011687
-51.631705 52.948941 -14.061540 -178.220499 -17.744542 -2.304525 0.642566 15.632141 -0.110852 0.061946 1.489998 -0.012425 0.089632 2.484433 -0.008351 0.587357 13.916513 -0.066086 0.207654 17.981757 1.290693 -0.027543 -6.740145 1.248369 0.736728 -1.320594 2.769280 0.156279 -7.494643 -5.528702 -79.579870 -72.183245 110.234096 -5.679372 -0.254118 -6.025411 -5.365404 -1.171255 0.407072 3.098887 -7.081402 11.241692 65.144086 -54.800738 -106.901269 2.177781 9.166411 0.243255 0.834787 -60.774777 11.852571 168.103217 86.844531 166.071960 -11.779939 -22.777911 12.879890 -0.007567 0.030124 -0.012582 4.547767 -59.362544 -2.886620 121.169544 78.030586 119.514044 -6.285769 -19.799132 -0.899165 0.015558 0.069713 0.011082
-51.631001 52.952401 -14.063371 -178.205529 -17.752868 -2.316818 0.580652 15.587674 -0.072484 0.084535 1.515024 -0.036020 0.099123 2.495374 -0.017468 0.506339 13.837917 -0.005521 0.473750 18.103445 1.040064 0.276661 -6.650418 0.968671 0.808065 -1.279211 2.724264 0.260716 -7.519667 -5.603320 -79.577899 -72.229858 110.302464 -5.698431 -0.410679 -6.061570 -5.302857 -1.095132 0.329748 3.107058 -7.040664 11.236127 64.940481 -54.783507 -106.753674 2.179638 9.126362 0.260009 0.829922 -60.756084 11.799431 167.224709 86.834003 165.144994 -11.316239 -22.823489 12.823176 0.011815 0.000804 -0.036884 4.508166 -59.350956 -2.863580 121.152419 78.030938 119.493837 -6.280742 -19.800280 -0.905193 0.013155 0.070663 0.011481
-51.632473 52.954908 -14.063769 -178.192718 -17.753492 -2.315256 0.540420 15.559516 -0.055786 0.080521 1.510869 -0.039749 0.092685 2.487885 -0.014209 0.459892 13.799857 0.030340 0.749411 18.216750 0.794010 0.609307 -6.542859 0.666169 0.869124 -1.261977 2.686509 0.357341 -7.535237 -5.667358 -79.552175 -72.271690 110.353029 -5.719206 -0.564852 -6.084630 -5.261589 -1.038736 0.267195 3.058489 -6.953209 11.260978 64.888504 -54.765992 -106.692151 2.188472 9.113406 0.276184 0.855991 -60.752740 11.760337 167.162804 86.834518 165.079778 -11.154984 -22.839668 12.801920 0.079209 -0.003253 -0.033169 4.492562 -59.346882 -2.865963 121.133156 78.036783 119.466505 -6.279089 -19.795339 -0.903142 0.007237 0.069567 0.008670
-51.633316 52.956707 -14.063393 -178.182740 -17.749718 -2.315446 0.504092 15.526223 -0.030515 0.074150 1.505673 -0.043531 0.086450 2.479357 -0.010528 0.431052 13.772823 0.058936 1.031885 18.330530 0.547890 0.963509 -6.415904 0.342940 0.915426 -1.263199 2.658734 0.457794 -7.536969 -5.728211 -79.513411 -72.308959 110.386156 -5.743441 -0.709405 -6.086123 -5.306258 -1.057865 0.306908 3.064729 -6.795278 11.197616 64.834097 -54.750340 -106.606852 2.190402 9.103201 0.294033 0.866441 -60.754672 11.743582 167.203248 86.838518 165.122802 -11.064436 -22.846287 12.786085 0.087686 -0.006170 -0.029649 4.474271 -59.348918 -2.863121 121.109241 78.037361 119.438105 -6.278948 -19.790938 -0.906059 0.005173 0.069198 0.007883
-51.633483 52.958043 -14.063052 -178.176288 -17.745961 -2.316507 0.471141 15.490808 0.000741 0.043965 1.462683 -0.000983 0.082473 2.470788 -0.013345 0.414945 13.779571 0.049114 1.323138 18.459557 0.291930 1.330049 -6.269296 0.007007 0.961090 -1.259491 2.627235 0.512719 -7.498201 -5.784892 -79.538373 -72.344522 110.525792 -5.767086 -0.843451 -6.062802 -5.321499 -1.060327 0.320403 3.030616 -6.667754 11.145203 64.740752 -54.743774 -106.484178 2.191523 9.097841 0.315453 0.877309 -60.758941 11.729546 167.088335 86.840580 165.013810 -11.012969 -22.844103 12.771984 0.015275 -0.018432 -0.029389 4.462891 -59.351986 -2.861620 121.093531 78.038912 119.425478 -6.283810 -19.786669 -0.912534 0.011946 0.067665 0.009570
-51.634205 52.958932 -14.062866 -178.172491 -17.742442 -2.310423 0.439645 15.455558 0.027038 0.040662 1.455834 0.002113 0.068267 2.446860 0.004070 0.393127 13.764868 0.062458 1.613450 18.600643 0.036606 1.696525 -6.106534 -0.328643 1.004721 -1.248331 2.597609 0.565275 -7.465537 -5.842685 -79.533069 -72.374648 110.626895 -5.787628 -0.965768 -6.008368 -5.322629 -1.060215 0.321524 2.957040 -6.551227 11.105353 64.644406 -54.745109 -106.349507 2.195689 9.095263 0.344527 0.893686 -60.764322 11.732419 167.455248 86.848728 165.407477 -11.159409 -22.830512 12.788619 0.006835 -0.010370 -0.017117 4.465624 -59.353612 -2.873684 121.074577 78.039783 119.406521 -6.284694 -19.784242 -0.914916 0.014103 0.067759 0.009046
-51.633420 52.959583 -14.063167 -178.169342 -17.740486 -2.309597 0.411508 15.425183 0.060492 0.037643 1.449463 0.005353 0.063322 2.436505 0.009508 0.368760 13.738993 0.090973 1.892520 18.751875 -0.210491 2.050538 -5.929971 -0.653777 1.042628 -1.232603 2.571270 0.760838 -7.530540 -5.888815 -79.300855 -72.416217 110.340844 -5.808242 -1.070522 -5.921714 -5.318548 -1.082191 0.324065 2.854907 -6.435276 11.064981 64.541444 -54.750594 -106.195622 2.200697 9.099478 0.372526 0.895978 -60.766095 11.743234 167.714795 86.855199 165.684732 -11.267120 -22.822059 12.803379 0.001180 -0.004714 -0.010976 4.457733 -59.358362 -2.875301 121.106095 78.049319 119.442078 -6.272680 -19.777914 -0.920301 0.015951 0.063135 0.007184
-51.632624 52.959722 -14.063111 -178.169268 -17.734982 -2.303940 0.385423 15.394343 0.093135 0.034801 1.443770 0.008927 0.058741 2.427311 0.015501 0.346242 13.715932 0.122799 2.150869 18.915885 -0.443383 2.380678 -5.737198 -0.960077 1.080099 -1.212179 2.542026 0.909187 -7.560791 -5.928790 -79.152402 -72.472533 110.169810 -5.828891 -1.161801 -5.805814 -5.305687 -1.131052 0.315109 2.723779 -6.322450 11.033186 64.428045 -54.758845 -106.020739 2.202515 9.112303 0.396805 0.914888 -60.771918 11.729701 167.815101 86.861485 165.795651 -11.304416 -22.822334 12.811029 -0.000705 -0.001205 -0.010254 4.454608 -59.366796 -2.882954 121.124213 78.047876 119.457684 -6.265572 -19.774627 -0.919861 0.009971 0.059891 0.002647
-51.631347 52.959791 -14.063692 -178.170982 -17.732359 -2.297029 0.373120 15.379560 0.106844 0.020864 1.427310 0.038229 0.054334 2.419339 0.022033 0.325037 13.695859 0.157926 2.378186 19.096729 -0.653916 2.673871 -5.524491 -1.236565 1.127792 -1.183641 2.501812 1.018225 -7.575022 -5.966152 -79.055424 -72.527862 110.038434 -5.836957 -1.246474 -5.644219 -5.282426 -1.204692 0.286460 2.569936 -6.215601 11.016881 64.309180 -54.770387 -105.836742 2.196869 9.134886 0.419619 0.940701 -60.775053 11.716599 168.045907 86.866780 166.037401 -11.343137 -22.821919 12.820996 -0.002907 0.001660 -0.009426 4.461393 -59.369271 -2.891817 121.144238 78.050975 119.479197 -6.265895 -19.776536 -0.919459 0.005745 0.059655 0.002082
